# xmcd
#
# Track frame offsets:
#	150
#	18767
#	36886
#	53746
#
# Disc length: 960 seconds
#
# Revision: 1
# Processed by: cddbd v1.5.1PL0 Copyright (c) Steve Scherf et al.
# Submitted via: CDex 1.50Beta5
#
DISCID=2503be04
DTITLE=上戸彩 - Pureness [Maxi]
DYEAR=2002
DGENRE=Pop
TTITLE0=Pureness
TTITLE1=Breath of My Heart
TTITLE2=PUZZLE
TTITLE3=Pureness (Instrumental)
EXTD=
EXTT0=
EXTT1=
EXTT2=
EXTT3=
PLAYORDER=
